<svg width="166" height="32" viewBox="0 0 166 32" fill="none" xmlns="http://www.w3.org/2000/svg">
<path d="M2.4974 13.1775C3.79692 13.1775 4.85039 12.1241 4.85039 10.8245C4.85039 9.52503 3.79692 8.47156 2.4974 8.47156C1.19788 8.47156 0.144409 9.52503 0.144409 10.8245C0.144409 12.1241 1.19788 13.1775 2.4974 13.1775Z" fill="#FB3671"/>
<path d="M21.3213 13.1775C22.6208 13.1775 23.6742 12.1241 23.6742 10.8245C23.6742 9.52503 22.6208 8.47156 21.3213 8.47156C20.0217 8.47156 18.9683 9.52503 18.9683 10.8245C18.9683 12.1241 20.0217 13.1775 21.3213 13.1775Z" fill="url(#paint0_linear)"/>
<path d="M2.4974 4.70598C3.79692 4.70598 4.85039 3.65251 4.85039 2.35299C4.85039 1.05347 3.79692 0 2.4974 0C1.19788 0 0.144409 1.05347 0.144409 2.35299C0.144409 3.65251 1.19788 4.70598 2.4974 4.70598Z" fill="#FB3671"/>
<path d="M21.3213 4.70598C22.6208 4.70598 23.6742 3.65251 23.6742 2.35299C23.6742 1.05347 22.6208 0 21.3213 0C20.0217 0 18.9683 1.05347 18.9683 2.35299C18.9683 3.65251 20.0217 4.70598 21.3213 4.70598Z" fill="url(#paint1_linear)"/>
<path d="M30.7332 4.70598C32.0328 4.70598 33.0862 3.65251 33.0862 2.35299C33.0862 1.05347 32.0328 0 30.7332 0C29.4337 0 28.3802 1.05347 28.3802 2.35299C28.3802 3.65251 29.4337 4.70598 30.7332 4.70598Z" fill="#7FE4FF"/>
<path d="M11.9094 4.70598C13.2089 4.70598 14.2624 3.65251 14.2624 2.35299C14.2624 1.05347 13.2089 0 11.9094 0C10.6099 0 9.5564 1.05347 9.5564 2.35299C9.5564 3.65251 10.6099 4.70598 11.9094 4.70598Z" fill="#DE7FB0"/>
<path d="M2.49741 16.9406H2.4974C1.19788 16.9406 0.144409 17.994 0.144409 19.2935V29.6467C0.144409 30.9462 1.19788 31.9997 2.4974 31.9997H2.49741C3.79693 31.9997 4.8504 30.9462 4.8504 29.6467V19.2935C4.8504 17.994 3.79693 16.9406 2.49741 16.9406Z" fill="#9999B4"/>
<path d="M21.3213 16.9406H21.3213C20.0217 16.9406 18.9683 17.994 18.9683 19.2935V29.6467C18.9683 30.9462 20.0217 31.9997 21.3213 31.9997H21.3213C22.6208 31.9997 23.6743 30.9462 23.6743 29.6467V19.2935C23.6743 17.994 22.6208 16.9406 21.3213 16.9406Z" fill="#9999B4"/>
<path d="M11.9094 7.52881H11.9094C10.6099 7.52881 9.5564 8.58228 9.5564 9.8818V29.647C9.5564 30.9465 10.6099 32 11.9094 32C13.2089 32 14.2624 30.9465 14.2624 29.647V9.8818C14.2624 8.58228 13.2089 7.52881 11.9094 7.52881Z" fill="#9999B4"/>
<path d="M30.7332 7.52881H30.7332C29.4337 7.52881 28.3802 8.58228 28.3802 9.8818V29.647C28.3802 30.9465 29.4337 32 30.7332 32C32.0328 32 33.0862 30.9465 33.0862 29.647V9.8818C33.0862 8.58228 32.0328 7.52881 30.7332 7.52881Z" fill="#9999B4"/>
<path d="M43.0342 20H45.8422C48.2542 20 49.8502 18.368 49.8502 16.04C49.8502 13.712 48.2542 12.08 45.8422 12.08H43.0342V20ZM45.7702 13.232C47.3902 13.232 48.2542 14.252 48.2542 16.04C48.2542 17.828 47.3902 18.848 45.7702 18.848H44.5342V13.232H45.7702ZM51.9488 20H53.4728L54.0488 18.32H57.1088L57.6728 20H59.2688L56.3528 12.08H54.8528L51.9488 20ZM55.5848 13.712L56.7848 17.228H54.3848L55.5848 13.712ZM64.1233 20.12C65.9593 20.12 67.1593 19.04 67.1593 17.648C67.1593 16.556 66.4153 15.8 65.1433 15.524L64.1713 15.308C63.4873 15.152 63.0913 14.84 63.0913 14.276C63.0913 13.652 63.5833 13.184 64.4593 13.184C65.1313 13.184 65.8633 13.46 66.2353 14.036L67.1833 13.088C66.7153 12.392 65.6113 11.96 64.5193 11.96C62.7913 11.96 61.5793 13.04 61.5793 14.444C61.5793 15.5 62.2633 16.256 63.5833 16.544L64.5553 16.76C65.3233 16.928 65.6473 17.3 65.6473 17.816C65.6473 18.452 65.1673 18.896 64.2433 18.896C63.4273 18.896 62.5513 18.56 62.1193 17.9L61.2073 18.896C61.7353 19.676 62.9713 20.12 64.1233 20.12ZM74.9088 20H76.4088V12.08H74.9088V15.404H71.7288V12.08H70.2288V20H71.7288V16.58H74.9088V20ZM84.0928 20H89.1448V18.824H85.5928V16.532H88.8208V15.356H85.5928V13.256H89.1448V12.08H84.0928V20ZM92.3374 20H93.7054V14.528L97.2934 20H98.6494V12.08H97.2814V17.552L93.6934 12.08H92.3374V20ZM103.796 20H105.296V13.256H107.66V12.08H101.432V13.256H103.796V20ZM110.444 20H115.496V18.824H111.944V16.532H115.172V15.356H111.944V13.256H115.496V12.08H110.444V20ZM118.688 20H120.188V16.748H121.316C122.336 16.748 122.732 17.132 122.732 18.2V18.752C122.732 19.352 122.852 19.748 123.068 20H124.616C124.376 19.676 124.256 19.244 124.256 18.632V18.092C124.256 16.808 123.656 16.316 122.396 16.22V16.196C123.716 16.04 124.484 15.332 124.484 14.264C124.484 12.848 123.284 12.08 121.112 12.08H118.688V20ZM121.076 13.208C122.3 13.208 122.888 13.592 122.888 14.444C122.888 15.296 122.3 15.68 121.076 15.68H120.188V13.208H121.076ZM127.718 20H129.218V16.976H129.962C132.062 16.976 133.322 16.052 133.322 14.528C133.322 13.004 132.062 12.08 129.962 12.08H127.718V20ZM129.962 13.208C131.162 13.208 131.726 13.616 131.726 14.528C131.726 15.44 131.162 15.848 129.962 15.848H129.218V13.208H129.962ZM136.267 20H137.767V16.748H138.895C139.915 16.748 140.311 17.132 140.311 18.2V18.752C140.311 19.352 140.431 19.748 140.647 20H142.195C141.955 19.676 141.835 19.244 141.835 18.632V18.092C141.835 16.808 141.235 16.316 139.975 16.22V16.196C141.295 16.04 142.063 15.332 142.063 14.264C142.063 12.848 140.863 12.08 138.691 12.08H136.267V20ZM138.655 13.208C139.879 13.208 140.467 13.592 140.467 14.444C140.467 15.296 139.879 15.68 138.655 15.68H137.767V13.208H138.655ZM145.297 20H146.797V12.08H145.297V20ZM152.563 20.12C154.399 20.12 155.599 19.04 155.599 17.648C155.599 16.556 154.855 15.8 153.583 15.524L152.611 15.308C151.927 15.152 151.531 14.84 151.531 14.276C151.531 13.652 152.023 13.184 152.899 13.184C153.571 13.184 154.303 13.46 154.675 14.036L155.623 13.088C155.155 12.392 154.051 11.96 152.959 11.96C151.231 11.96 150.019 13.04 150.019 14.444C150.019 15.5 150.703 16.256 152.023 16.544L152.995 16.76C153.763 16.928 154.087 17.3 154.087 17.816C154.087 18.452 153.607 18.896 152.683 18.896C151.867 18.896 150.991 18.56 150.559 17.9L149.647 18.896C150.175 19.676 151.411 20.12 152.563 20.12ZM158.669 20H163.721V18.824H160.169V16.532H163.397V15.356H160.169V13.256H163.721V12.08H158.669V20Z" fill="#59595F"/>
<defs>
<linearGradient id="paint0_linear" x1="14.2623" y1="13.1776" x2="23.6743" y2="8.4716" gradientUnits="userSpaceOnUse">
<stop stop-color="#FF2C6D"/>
<stop offset="1" stop-color="#7FE4FF"/>
</linearGradient>
<linearGradient id="paint1_linear" x1="15.2036" y1="0" x2="23.6743" y2="-0.941201" gradientUnits="userSpaceOnUse">
<stop stop-color="#FF2C6D"/>
<stop offset="1" stop-color="#7FE4FF"/>
</linearGradient>
</defs>
</svg>
